<mxfile host="app.diagrams.net" modified="2023-11-09T05:04:02.358Z" agent="Mozilla/5.0 (Windows NT 10.0; Win64; x64) AppleWebKit/537.36 (KHTML, like Gecko) Chrome/116.0.5845.837 YaBrowser/23.9.4.837 Yowser/2.5 Safari/537.36" etag="gV3HbNsgjCBMlRUfuoJU" version="22.1.0" type="google">
  <diagram name="Страница — 1" id="qfu2OQlrliJWPlRGTcx2">
    <mxGraphModel dx="1290" dy="575" grid="1" gridSize="10" guides="1" tooltips="1" connect="1" arrows="1" fold="1" page="1" pageScale="1" pageWidth="827" pageHeight="1169" math="0" shadow="0">
      <root>
        <mxCell id="0" />
        <mxCell id="1" parent="0" />
        <mxCell id="s4F452vZ7WINFCM7ghcF-2" value="" style="shape=folder;fontStyle=1;spacingTop=10;tabWidth=50;tabHeight=20;tabPosition=left;html=1;whiteSpace=wrap;" parent="1" vertex="1">
          <mxGeometry x="250" y="180" width="90" height="110" as="geometry" />
        </mxCell>
        <mxCell id="s4F452vZ7WINFCM7ghcF-3" value="UI" style="text;html=1;strokeColor=none;fillColor=none;align=center;verticalAlign=middle;whiteSpace=wrap;rounded=0;" parent="1" vertex="1">
          <mxGeometry x="240" y="180" width="60" height="20" as="geometry" />
        </mxCell>
        <mxCell id="s4F452vZ7WINFCM7ghcF-4" value="Web" style="shape=folder;fontStyle=1;spacingTop=10;tabWidth=40;tabHeight=14;tabPosition=left;html=1;whiteSpace=wrap;" parent="1" vertex="1">
          <mxGeometry x="260" y="220" width="70" height="50" as="geometry" />
        </mxCell>
        <mxCell id="s4F452vZ7WINFCM7ghcF-6" value="FoodService System" style="shape=folder;fontStyle=1;spacingTop=10;tabWidth=40;tabHeight=14;tabPosition=left;html=1;whiteSpace=wrap;" parent="1" vertex="1">
          <mxGeometry x="210" y="340" width="170" height="90" as="geometry" />
        </mxCell>
        <mxCell id="s4F452vZ7WINFCM7ghcF-7" value="" style="shape=folder;fontStyle=1;spacingTop=10;tabWidth=140;tabHeight=20;tabPosition=left;html=1;whiteSpace=wrap;" parent="1" vertex="1">
          <mxGeometry x="490" y="320" width="190" height="110" as="geometry" />
        </mxCell>
        <mxCell id="s4F452vZ7WINFCM7ghcF-8" value="Data Management" style="text;html=1;strokeColor=none;fillColor=none;align=center;verticalAlign=middle;whiteSpace=wrap;rounded=0;" parent="1" vertex="1">
          <mxGeometry x="480" y="320" width="130" height="20" as="geometry" />
        </mxCell>
        <mxCell id="s4F452vZ7WINFCM7ghcF-9" value="User DB" style="shape=folder;fontStyle=1;spacingTop=10;tabWidth=40;tabHeight=14;tabPosition=left;html=1;whiteSpace=wrap;" parent="1" vertex="1">
          <mxGeometry x="500" y="360" width="70" height="50" as="geometry" />
        </mxCell>
        <mxCell id="s4F452vZ7WINFCM7ghcF-11" value="Product DB" style="shape=folder;fontStyle=1;spacingTop=10;tabWidth=40;tabHeight=14;tabPosition=left;html=1;whiteSpace=wrap;" parent="1" vertex="1">
          <mxGeometry x="580" y="360" width="80" height="50" as="geometry" />
        </mxCell>
        <mxCell id="s4F452vZ7WINFCM7ghcF-14" value="Registration proccesing" style="shape=folder;fontStyle=1;spacingTop=10;tabWidth=40;tabHeight=14;tabPosition=left;html=1;whiteSpace=wrap;" parent="1" vertex="1">
          <mxGeometry x="30.95" y="380" width="140" height="80" as="geometry" />
        </mxCell>
        <mxCell id="s4F452vZ7WINFCM7ghcF-15" value="Administrator" style="html=1;whiteSpace=wrap;" parent="1" vertex="1">
          <mxGeometry x="30.95" y="310" width="80" height="30" as="geometry" />
        </mxCell>
        <mxCell id="s4F452vZ7WINFCM7ghcF-16" value="" style="endArrow=openThin;endSize=12;dashed=1;html=1;rounded=0;entryX=0.5;entryY=1;entryDx=0;entryDy=0;entryPerimeter=0;exitX=0.5;exitY=0.122;exitDx=0;exitDy=0;exitPerimeter=0;endFill=0;" parent="1" source="s4F452vZ7WINFCM7ghcF-6" target="s4F452vZ7WINFCM7ghcF-2" edge="1">
          <mxGeometry width="160" relative="1" as="geometry">
            <mxPoint x="310" y="340" as="sourcePoint" />
            <mxPoint x="470" y="340" as="targetPoint" />
          </mxGeometry>
        </mxCell>
        <mxCell id="s4F452vZ7WINFCM7ghcF-17" value="" style="endArrow=openThin;endSize=12;dashed=1;html=1;rounded=0;entryX=0.008;entryY=0.536;entryDx=0;entryDy=0;entryPerimeter=0;endFill=0;" parent="1" target="s4F452vZ7WINFCM7ghcF-7" edge="1">
          <mxGeometry width="160" relative="1" as="geometry">
            <mxPoint x="380" y="379" as="sourcePoint" />
            <mxPoint x="305" y="300" as="targetPoint" />
          </mxGeometry>
        </mxCell>
        <mxCell id="s4F452vZ7WINFCM7ghcF-20" value="" style="endArrow=none;html=1;rounded=0;entryX=1;entryY=0.5;entryDx=0;entryDy=0;exitX=0;exitY=0;exitDx=90;exitDy=14;exitPerimeter=0;edgeStyle=orthogonalEdgeStyle;" parent="1" source="s4F452vZ7WINFCM7ghcF-14" target="s4F452vZ7WINFCM7ghcF-15" edge="1">
          <mxGeometry width="50" height="50" relative="1" as="geometry">
            <mxPoint x="250" y="360" as="sourcePoint" />
            <mxPoint x="300" y="310" as="targetPoint" />
          </mxGeometry>
        </mxCell>
        <mxCell id="s4F452vZ7WINFCM7ghcF-22" value="" style="html=1;verticalAlign=bottom;startArrow=circlePlus;startFill=0;endArrow=none;startSize=6;endSize=8;curved=0;rounded=0;exitX=0;exitY=0;exitDx=0;exitDy=33;exitPerimeter=0;endFill=0;" parent="1" source="s4F452vZ7WINFCM7ghcF-6" edge="1">
          <mxGeometry width="80" relative="1" as="geometry">
            <mxPoint x="230" y="340" as="sourcePoint" />
            <mxPoint x="120" y="373" as="targetPoint" />
          </mxGeometry>
        </mxCell>
        <mxCell id="RVCbtpgERKjLJ24QGgot-2" value="Составляющие элементы пакета&amp;nbsp;FoodService System: пакет Registration proccesing и класс&amp;nbsp; Administrator. Главная по функциональности часть взаимодействует с пакетом графического интерфейса UI для веб-верстки, а также использует внешние системы, где клиент может сам прийти в службу доставки и сделать заказ. Все необходимые данные по покупателям и заказам находятся в пакете DAta Management, доступ к которым имеет FoodService" style="text;html=1;strokeColor=none;fillColor=none;align=center;verticalAlign=middle;whiteSpace=wrap;rounded=0;" parent="1" vertex="1">
          <mxGeometry x="70" y="640" width="640" height="30" as="geometry" />
        </mxCell>
      </root>
    </mxGraphModel>
  </diagram>
</mxfile>
